<svg xmlns="http://www.w3.org/2000/svg" viewBox="0 0 600 408" width="1296.333333" height="881" fill="none">
  <path fill="#ffffff" stroke="#111111" stroke-width="7" stroke-linejoin="round" d="M 115 1 C 76 1, 45 24, 45 66 V 322 H 15 L 84 401 C 86 404, 90 404, 92 401 L 159 320 C 163 314, 159 310, 152 310 H 121 V 304 H 205 V 293 C 200 307, 192 320, 181 331 C 170 342, 161 353, 151 363 H 173 C 192 363, 209 357, 223 345 C 240 331, 251 312, 251 289 V 268 C 251 245, 258 227, 271 213 C 285 199, 303 189, 327 181 C 351 173, 369 160, 381 142 C 389 128, 393 112, 393 90 V 74 C 393 47, 387 28, 374 16 C 361 4, 345 1, 324 1 Z"/>
  <path fill="#ff0033" stroke="#111111" stroke-width="7" stroke-linejoin="round" d="M 381 1 H 535 C 572 1, 598 24, 598 63 V 302 C 598 339, 572 363, 519 363 H 262 C 253 363, 245 363, 238 362 C 247 354, 254 346, 260 337 C 267 327, 270 314, 270 298 V 266 C 270 242, 278 223, 293 208 C 306 195, 324 186, 349 178 C 374 170, 393 156, 406 137 C 416 122, 421 103, 421 79 V 63 C 421 38, 415 20, 402 8 C 396 3, 389 1, 381 1 Z"/>
  <path fill="#ffffff" d="M 438 134 Q 433 131 433 137 L 433 222 Q 433 228 438 225 L 510 183 Q 518 178 510 173 Z"/>
</svg>
