<svg xmlns="http://www.w3.org/2000/svg" viewBox="48 0 548 364" width="548" height="364" fill="none">
  <defs>
    <linearGradient id="snapvie-brand-gradient" x1="96" y1="58" x2="337" y2="346" gradientUnits="userSpaceOnUse">
      <stop offset="0%" stop-color="#ff4d8c" />
      <stop offset="100%" stop-color="#ffb938" />
    </linearGradient>
    <mask id="center-gap-mask">
      <rect width="600" height="408" fill="#ffffff"/>
      <path
        d="M381 1
           V64
           C381 120, 349 152, 315 177
           C285 199, 263 222, 251 251
           C242 274, 242 299, 242 328
           V363"
        fill="none"
        stroke="#000000"
        stroke-width="24"
        stroke-linecap="butt"
        stroke-linejoin="round"
      />
    </mask>
  </defs>

  <path
    fill="url(#snapvie-brand-gradient)"
    mask="url(#center-gap-mask)"
    d="M115 1
       H381
       V64
       C381 120, 349 152, 315 177
       C285 199, 263 222, 251 251
       C242 274, 242 299, 242 328
       V363
       H90
       C57 363, 45 343, 45 310
       V66
       C45 24, 76 1, 115 1
       Z"
  />

  <path
    fill="#ff0033"
    mask="url(#center-gap-mask)"
    d="M381 1
       H535
       C572 1, 598 24, 598 63
       V302
       C598 339, 572 363, 519 363
       H242
       V328
       C242 299, 242 274, 251 251
       C263 222, 285 199, 315 177
       C349 152, 381 120, 381 64
       V1
       Z"
  />

  <path fill="#ffffff" d="M 438 134 Q 433 131 433 137 L 433 222 Q 433 228 438 225 L 510 183 Q 518 178 510 173 Z"/>
</svg>
