<?xml version="1.0" encoding="UTF-8"?>
<svg xmlns="http://www.w3.org/2000/svg" width="602.187" height="515.868" viewBox="0 0 602.187 515.868" fill="none">
  <defs>
    <mask id="center-cut-mask">
      <rect width="602.187" height="515.868" fill="#FFFFFF" />
      <path
        d="M301 126C282 169 282 220 301 258C320 296 320 347 301 390"
        stroke="#000000"
        stroke-width="18"
        stroke-linecap="round"
        stroke-linejoin="round"
      />
      <circle cx="291" cy="126" r="11" fill="#000000" />
      <circle cx="311" cy="126" r="11" fill="#000000" />
      <circle cx="291" cy="390" r="11" fill="#000000" />
      <circle cx="311" cy="390" r="11" fill="#000000" />
    </mask>
  </defs>
  <path
    fill="#FF0132"
    mask="url(#center-cut-mask)"
    d="M146.078 388.18C129.012 383.551 115.707 369.957 110.789 353.18 102.688 322.227 102.688 257.723 102.688 257.723 102.688 257.723 102.688 193.219 110.789 162.559 115.707 145.492 129.012 132.184 146.078 127.555 176.738 119.168 300.543 119.168 300.543 119.168 300.543 119.168 424.637 119.168 455.297 127.555 472.652 132.184 485.668 145.492 490.297 162.559 498.688 193.219 498.688 257.723 498.688 257.723 498.688 257.723 498.688 322.227 490.297 353.18 485.668 369.957 472.652 383.551 455.297 388.18 424.637 396.57 300.543 396.57 300.543 396.57 300.543 396.57 176.738 396.57 146.078 388.18Z"
  />
</svg>
