<?xml version="1.0" encoding="UTF-8"?>
<svg xmlns="http://www.w3.org/2000/svg" viewBox="0 0 720 620" fill="none">
  <path
    d="M202 72H560
       C621 72 654 84 677 107
       C700 130 712 163 712 224
       V385
       C712 446 700 479 677 502
       C654 525 621 537 560 537
       H262
       C241 537 226 554 226 575
       V591
       C226 604 210 611 200 602
       L126 535
       H94
       C76 535 64 529 55 520
       C46 511 40 499 40 481
       V437
       C40 420 46 408 55 399
       L100 354
       V224
       C100 163 112 130 135 107
       C158 84 191 72 252 72
       H202"
    stroke="#8D73B5"
    stroke-width="24"
    stroke-linecap="round"
    stroke-linejoin="round"
  />
</svg>
